<?xml version="1.0" encoding="utf-8"?>
<!-- Generator: Adobe Illustrator 21.0.0, SVG Export Plug-In . SVG Version: 6.00 Build 0)  -->
<svg version="1.1" id="Layer_1" xmlns="http://www.w3.org/2000/svg" xmlns:xlink="http://www.w3.org/1999/xlink" x="0px" y="0px"
	 viewBox="0 0 343.3 174.5" style="enable-background:new 0 0 343.3 174.5;" xml:space="preserve">
<style type="text/css">
	.st0{fill:#E60000;}
	.st1{fill:#FFFFFF;}
</style>
<path class="st0" d="M333.8,0H9.5C4.3,0,0,4.3,0,9.5v155.4c0,5.3,4.3,9.5,9.5,9.5h324.3c5.3,0,9.5-4.3,9.5-9.5V9.5
	C343.3,4.3,339,0,333.8,0z"/>
<g>
	<path class="st1" d="M148.7,58.5c-5.2,0-4.7,4.3-4.7,9.5v38.6c0,5.3,4.3,9.5,9.5,9.5c5.2,0,9.5-4.3,9.5-9.5V81.5
		C163,65.7,154,58.5,148.7,58.5L148.7,58.5z"/>
	<path class="st1" d="M47.1,72.6c-5.2,0-4.7,4.3-4.7,9.5v24.5c0,5.2,4.3,9.5,9.5,9.5c5.2,0,9.5-4.3,9.5-9.5V95.5
		C61.4,79.8,52.4,72.6,47.1,72.6L47.1,72.6z"/>
	<path class="st1" d="M200.7,58.3c-7.4,0-13.8,6.9-15.2,11.4c-3-7.6-8.5-11.2-12.2-11.2c-5.2,0-4.7,4.3-4.7,9.5l0.1,9.5v29.1
		c0,5.2,4.3,9.5,9.5,9.5c5.2,0,9.5-4.3,9.5-9.5V84.4c0-3.8,1.2-8.4,7-8.4c1.7,0,6.8,0,6.8,8.4v22.2c0,5.2,4.3,9.5,9.5,9.5
		c5.2,0,9.5-4.3,9.5-9.5V79.8C220.5,66.5,212.9,58.3,200.7,58.3L200.7,58.3z"/>
	<path class="st1" d="M130.8,58.4c-4.4,0-7.7,2.6-9.1,7.1l-6.1,19.9l-6.1-19.7c-1.4-4.6-5.1-7.4-9.6-7.4h-0.9
		c-4.5,0-8.2,2.8-9.6,7.4l-5.4,17.5c-1.5-4.9-5.8-31.4-31.1-33c-8.7-0.5-11.2,4.7-12,7.6c-0.7,2.8-0.4,5.2,1.3,7.3
		c1.7,2.2,5,2.5,8.9,4C61,73,63.6,81.8,65.9,87.3c0.8,1.9,6.4,20.8,6.4,20.8c1.8,5.2,5.4,8.1,10.2,8.1H83c4.8,0,8.4-2.9,10-7.8
		l6.3-19.7l6.2,19.7c1.6,5,5.2,7.8,10,7.8h0.5c4.8,0,8.4-2.9,10.2-8L139.2,71l0-0.1c0.2-0.7,0.6-2.3,0.6-3.6
		C139.8,62.3,135.9,58.4,130.8,58.4L130.8,58.4z"/>
	<path class="st1" d="M276,99.9c-0.2-0.2-0.4-0.4-0.6-0.6l-14.1-14.4l11.3-9.6l0,0c1.9-1.8,4.1-4.3,4.1-8c0-4.3-3.2-8.7-8.6-8.7
		c-3.6,0-5.9,1.9-8,3.9l-15,14.2c-1.6-12.5-9.2-18.4-14-18.4c-4.2,0-4.8,2.7-4.8,6.5c-0.1,1.1-0.1,2.4-0.1,3.7v38
		c0,4.9,3.8,9.1,8.6,9.6c0.3,0,0.7,0.1,1,0.1c5.3,0,9.5-4.4,9.5-9.6v-7.5l3.3-3l14.5,16.4c0.6,0.6,1.3,1.3,2.1,1.9
		c1.1,0.9,2.5,1.5,4.2,1.8c0.1,0,1.2,0.1,1.8,0.1c4.3-0.1,8.7-3.2,8.6-8.6C279.6,104.1,277.9,101.9,276,99.9L276,99.9z"/>
	<circle class="st1" cx="293.3" cy="106.7" r="9.5"/>
</g>
</svg>
