<?xml version="1.0" encoding="UTF-8"?>
<!-- Generator: Adobe Illustrator 25.2.1, SVG Export Plug-In . SVG Version: 6.00 Build 0)  -->
<svg version="1.1" id="Layer_1" xmlns="http://www.w3.org/2000/svg" xmlns:xlink="http://www.w3.org/1999/xlink" x="0px" y="0px" viewBox="0 0 1000 1000" style="enable-background:new 0 0 1000 1000;" xml:space="preserve">
<style type="text/css">
	.st0{fill:#F5E0B4;}
	.st1{fill:#383535;}
	.st2{fill:#FBDE3D;}
	.st3{fill:#8C919F;}
	.st4{fill:#CACED5;}
	.st5{fill:#FFFFFF;}
</style>
<g>
	<polygon class="st0" points="782.2,925.8 733.4,643.2 996.4,532.7 745.7,396.4 823.6,120.2 560.7,232.2 391.6,0 313.7,274.7    26.5,260.1 194.4,491.3 3.6,705.5 289.4,721.3 340.5,1000 529.1,787  "/>
	<path class="st1" d="M706.9,493.4c0-126-102.2-228.2-228.2-228.2c-126,0-228.2,102.2-228.2,228.2c0,81.8,43.1,153.6,107.8,193.8   v202.6l43.5,43.5l0.2-0.2h150.6l0.2,0.2l43.5-43.5V689C662.6,649,706.9,576.4,706.9,493.4z"/>
	<path class="st2" d="M682.2,492.9c0-112.7-91.3-204-204-204s-204,91.3-204,204c0,78,43.8,145.8,108.1,180.1v93.6h191.7V673   C638.4,638.7,682.2,571,682.2,492.9z"/>
	<g>
		<polygon class="st3" points="382.7,790.4 382.7,881.1 412,910.3 544.9,910.3 574.1,881.1 574.1,790.4   "/>
		<polygon class="st4" points="540,813.2 540,866.5 527,879.5 540.4,892.9 558.7,874.6 558.9,874.6 558.9,813.2   "/>
	</g>
	<path class="st5" d="M478.3,310.4c-5,0-9.1,4.1-9.1,9.1c0,5,4.1,9.1,9.1,9.1c90.7,0,164.3,73.5,164.3,164.3c0,5,4.1,9.1,9.1,9.1   s9.1-4.1,9.1-9.1C660.8,392.1,579.1,310.4,478.3,310.4z"/>
</g>
</svg>